# xmcd
#
# Track frame offsets: 
#        150
#        16994
#        33606
#        49333
#        63633
#        75662
#        86107
#        99161
#        109099
#        123484
#        136844
#        158430
#
# Disc length: 2349 seconds
#
# Revision: 2
# Processed by: cddbd v1.5.1PL0 Copyright (c) Steve Scherf et al.
# Submitted via: ExactAudioCopy v0.95a5
#
DISCID=95092b0c
DTITLE=Chris Whitley - Dirt Floor
DYEAR=1998
DGENRE=
TTITLE0=Scrapyard Lullaby
TTITLE1=Indian Summer
TTITLE2=Accordingly
TTITLE3=Wild Country
TTITLE4=Ballpeen Hammer
TTITLE5=From One Island to Another
TTITLE6=Altitude
TTITLE7=Dirt Floor
TTITLE8=Loco Girl
TTITLE9=The Model
TTITLE10=Alien
TTITLE11=Living With The Law
EXTD=
EXTT0=
EXTT1=
EXTT2=
EXTT3=
EXTT4=
EXTT5=
EXTT6=
EXTT7=
EXTT8=
EXTT9=
EXTT10=
EXTT11=
PLAYORDER=
